<svg width="1440" height="285" viewBox="0 0 1440 285" fill="none" xmlns="http://www.w3.org/2000/svg">
<path d="M515 59C502.869 59 493 68.8692 493 81V90.1146C493 92.3674 494.973 94.2 497.4 94.2H499.6C500.183 94.2 500.743 93.9682 501.156 93.5556C501.568 93.1431 501.8 92.5835 501.8 92V80.6854C501.8 80.1019 501.568 79.5423 501.156 79.1298C500.743 78.7172 500.183 78.4854 499.6 78.4854H497.602C498.826 69.9714 506.152 63.4 515 63.4C523.848 63.4 531.174 69.9714 532.398 78.4854H530.4C529.817 78.4854 529.257 78.7172 528.844 79.1298C528.432 79.5423 528.2 80.1019 528.2 80.6854V94.2C528.2 96.6266 526.227 98.6 523.8 98.6H519.4V96.4H510.6V103H523.8C528.653 103 532.6 99.0532 532.6 94.2C535.027 94.2 537 92.3674 537 90.1146V81C537 68.8692 527.131 59 515 59Z" fill="#D7C8A3"/>
<path d="M548.52 76.5V62.22H558.8V64.38H551.02V68.12H558.22V70.16H551.02V74.34H558.94V76.5H548.52ZM570.058 69.62H567.778C567.598 68.36 566.678 67.68 565.418 67.68C564.238 67.68 562.578 68.3 562.578 71.44C562.578 73.16 563.338 74.98 565.318 74.98C566.638 74.98 567.558 74.1 567.778 72.62H570.058C569.638 75.3 567.978 76.78 565.318 76.78C562.078 76.78 560.298 74.48 560.298 71.44C560.298 68.32 561.998 65.88 565.398 65.88C567.798 65.88 569.838 67.08 570.058 69.62ZM571.911 76.5V62.22H574.191V67.52H574.231C574.791 66.58 575.971 65.88 577.331 65.88C579.571 65.88 580.991 67.08 580.991 69.4V76.5H578.711V70C578.671 68.38 578.031 67.68 576.691 67.68C575.171 67.68 574.191 68.88 574.191 70.4V76.5H571.911ZM589.775 73.02V71.32C589.075 71.78 587.975 71.76 586.975 71.94C585.995 72.1 585.115 72.46 585.115 73.66C585.115 74.68 586.415 74.98 587.215 74.98C588.215 74.98 589.775 74.46 589.775 73.02ZM592.055 68.88V74.2C592.055 74.76 592.175 74.98 592.595 74.98C592.735 74.98 592.915 74.98 593.155 74.94V76.52C592.815 76.64 592.095 76.78 591.715 76.78C590.795 76.78 590.135 76.46 589.955 75.52C589.055 76.4 587.595 76.78 586.375 76.78C584.515 76.78 582.835 75.78 582.835 73.76C582.835 71.18 584.895 70.76 586.815 70.54C588.455 70.24 589.915 70.42 589.915 69.08C589.915 67.9 588.695 67.68 587.775 67.68C586.495 67.68 585.595 68.2 585.495 69.32H583.215C583.375 66.66 585.635 65.88 587.915 65.88C589.935 65.88 592.055 66.7 592.055 68.88ZM594.509 76.5V66.16H596.669V67.68L596.709 67.72C597.389 66.58 598.569 65.88 599.929 65.88C602.169 65.88 603.589 67.08 603.589 69.4V76.5H601.309V70C601.269 68.38 600.629 67.68 599.289 67.68C597.769 67.68 596.789 68.88 596.789 70.4V76.5H594.509ZM610.493 74.7C612.513 74.7 613.273 72.86 613.273 71.1C613.273 69.32 612.473 67.68 610.493 67.68C608.473 67.68 607.773 69.56 607.773 71.28C607.773 72.98 608.593 74.7 610.493 74.7ZM615.553 66.16V75.96C615.553 79.06 613.733 80.6 610.473 80.6C608.393 80.6 606.053 79.8 605.853 77.38H608.133C608.413 78.68 609.453 78.9 610.613 78.9C612.453 78.9 613.273 77.96 613.273 76.26V74.68H613.233C612.593 75.82 611.413 76.5 610.133 76.5C606.853 76.5 605.493 74.02 605.493 71.06C605.493 68.28 607.233 65.88 610.173 65.88C611.473 65.88 612.653 66.42 613.233 67.58H613.273V66.16H615.553ZM627.228 71.92H619.628C619.628 73.54 620.508 74.98 622.408 74.98C623.728 74.98 624.528 74.4 624.928 73.26H627.088C626.588 75.52 624.668 76.78 622.408 76.78C619.168 76.78 617.348 74.52 617.348 71.34C617.348 68.4 619.268 65.88 622.348 65.88C625.608 65.88 627.608 68.82 627.228 71.92ZM619.628 70.42H624.948C624.868 68.98 623.888 67.68 622.348 67.68C620.768 67.68 619.688 68.88 619.628 70.42ZM640.908 73.02V71.32C640.208 71.78 639.108 71.76 638.108 71.94C637.128 72.1 636.248 72.46 636.248 73.66C636.248 74.68 637.548 74.98 638.348 74.98C639.348 74.98 640.908 74.46 640.908 73.02ZM643.188 68.88V74.2C643.188 74.76 643.308 74.98 643.728 74.98C643.868 74.98 644.048 74.98 644.288 74.94V76.52C643.948 76.64 643.228 76.78 642.848 76.78C641.928 76.78 641.268 76.46 641.088 75.52C640.188 76.4 638.728 76.78 637.508 76.78C635.648 76.78 633.968 75.78 633.968 73.76C633.968 71.18 636.028 70.76 637.948 70.54C639.588 70.24 641.048 70.42 641.048 69.08C641.048 67.9 639.828 67.68 638.908 67.68C637.628 67.68 636.728 68.2 636.628 69.32H634.348C634.508 66.66 636.768 65.88 639.048 65.88C641.068 65.88 643.188 66.7 643.188 68.88ZM648.381 76.5L644.621 66.16H647.101L649.721 74.1H649.761L652.281 66.16H654.641L650.941 76.5H648.381ZM665.393 71.92H657.793C657.793 73.54 658.673 74.98 660.573 74.98C661.893 74.98 662.693 74.4 663.093 73.26H665.253C664.753 75.52 662.833 76.78 660.573 76.78C657.333 76.78 655.513 74.52 655.513 71.34C655.513 68.4 657.433 65.88 660.513 65.88C663.773 65.88 665.773 68.82 665.393 71.92ZM657.793 70.42H663.113C663.033 68.98 662.053 67.68 660.513 67.68C658.933 67.68 657.853 68.88 657.793 70.42ZM676.386 69.62H674.106C673.926 68.36 673.006 67.68 671.746 67.68C670.566 67.68 668.906 68.3 668.906 71.44C668.906 73.16 669.666 74.98 671.646 74.98C672.966 74.98 673.886 74.1 674.106 72.62H676.386C675.966 75.3 674.306 76.78 671.646 76.78C668.406 76.78 666.626 74.48 666.626 71.44C666.626 68.32 668.326 65.88 671.726 65.88C674.126 65.88 676.166 67.08 676.386 69.62ZM683.805 76.5V66.16H685.965V67.68L686.005 67.72C686.685 66.58 687.865 65.88 689.225 65.88C691.465 65.88 692.885 67.08 692.885 69.4V76.5H690.605V70C690.565 68.38 689.925 67.68 688.585 67.68C687.065 67.68 686.085 68.88 686.085 70.4V76.5H683.805ZM700.03 74.98C702.07 74.98 702.97 73.12 702.97 71.32C702.97 69.54 702.07 67.68 700.03 67.68C697.99 67.68 697.09 69.54 697.09 71.32C697.09 73.12 697.99 74.98 700.03 74.98ZM700.03 76.78C696.71 76.78 694.81 74.5 694.81 71.32C694.81 68.16 696.71 65.88 700.03 65.88C703.35 65.88 705.25 68.16 705.25 71.32C705.25 74.5 703.35 76.78 700.03 76.78ZM706.105 67.86V66.16H707.825V63.06H710.105V66.16H712.165V67.86H710.105V73.38C710.105 74.32 710.185 74.8 711.205 74.8C711.525 74.8 711.845 74.8 712.165 74.72V76.48C711.665 76.52 711.185 76.6 710.685 76.6C708.305 76.6 707.865 75.68 707.825 73.96V67.86H706.105ZM713.805 76.5V66.16H715.945V68.16H715.985C716.245 67.06 717.605 65.88 719.005 65.88C719.525 65.88 719.665 65.92 719.865 65.94V68.14C719.545 68.1 719.205 68.04 718.885 68.04C717.325 68.04 716.085 69.3 716.085 71.58V76.5H713.805ZM729.865 71.92H722.265C722.265 73.54 723.145 74.98 725.045 74.98C726.365 74.98 727.165 74.4 727.565 73.26H729.725C729.225 75.52 727.305 76.78 725.045 76.78C721.805 76.78 719.985 74.52 719.985 71.34C719.985 68.4 721.905 65.88 724.985 65.88C728.245 65.88 730.245 68.82 729.865 71.92ZM722.265 70.42H727.585C727.505 68.98 726.525 67.68 724.985 67.68C723.405 67.68 722.325 68.88 722.265 70.42ZM557.58 94.92H549.98C549.98 96.54 550.86 97.98 552.76 97.98C554.08 97.98 554.88 97.4 555.28 96.26H557.44C556.94 98.52 555.02 99.78 552.76 99.78C549.52 99.78 547.7 97.52 547.7 94.34C547.7 91.4 549.62 88.88 552.7 88.88C555.96 88.88 557.96 91.82 557.58 94.92ZM549.98 93.42H555.3C555.22 91.98 554.24 90.68 552.7 90.68C551.12 90.68 550.04 91.88 549.98 93.42ZM551.06 87.74L552.86 84.88H555.56L552.72 87.74H551.06ZM561.093 94.34C561.093 96.14 561.873 97.98 563.953 97.98C565.933 97.98 566.853 96.5 566.853 94.34C566.853 92.1 565.853 90.68 563.953 90.68C562.073 90.68 561.093 92.46 561.093 94.34ZM569.053 89.16V103.32H566.773V98.16H566.733C566.013 99.3 564.593 99.78 563.273 99.78C560.213 99.78 558.813 97.16 558.813 94.38C558.813 91.36 560.393 88.88 563.653 88.88C564.973 88.88 566.213 89.38 566.853 90.56H566.893V89.16H569.053ZM580.62 89.16V99.5H578.38V98.06H578.34C577.78 99.1 576.54 99.78 575.4 99.78C572.7 99.78 571.54 98.42 571.54 95.72V89.16H573.82V95.5C573.82 97.32 574.56 97.98 575.8 97.98C577.7 97.98 578.34 96.76 578.34 95.16V89.16H580.62ZM583.084 99.5V89.16H585.364V99.5H583.084ZM583.084 87.38V85.22H585.364V87.38H583.084ZM595.868 94.34C595.868 92.46 594.888 90.68 593.008 90.68C591.088 90.68 590.108 92.14 590.108 94.34C590.108 96.42 591.168 97.98 593.008 97.98C595.088 97.98 595.868 96.14 595.868 94.34ZM587.908 103.32V89.16H590.068V90.56H590.108C590.748 89.38 591.988 88.88 593.308 88.88C596.568 88.88 598.148 91.36 598.148 94.38C598.148 97.16 596.748 99.78 593.688 99.78C592.368 99.78 590.948 99.3 590.228 98.16H590.188V103.32H587.908ZM609.455 94.92H601.855C601.855 96.54 602.735 97.98 604.635 97.98C605.955 97.98 606.755 97.4 607.155 96.26H609.315C608.815 98.52 606.895 99.78 604.635 99.78C601.395 99.78 599.575 97.52 599.575 94.34C599.575 91.4 601.495 88.88 604.575 88.88C607.835 88.88 609.835 91.82 609.455 94.92ZM601.855 93.42H607.175C607.095 91.98 606.115 90.68 604.575 90.68C602.995 90.68 601.915 91.88 601.855 93.42Z" fill="#001524"/>
<path d="M1131.25 65C1133 65 1134.46 64.3642 1135.62 63.0925C1136.79 61.8208 1137.6 60.3108 1138.06 58.5625L1134.44 57.6875C1134.23 58.6042 1133.86 59.4275 1133.34 60.1575C1132.82 60.8875 1132.12 61.2517 1131.25 61.25C1130.37 61.25 1129.68 60.8858 1129.16 60.1575C1128.64 59.4292 1128.27 58.6058 1128.06 57.6875L1124.44 58.5625C1124.9 60.3125 1125.71 61.8233 1126.87 63.095C1128.04 64.3667 1129.5 65.0017 1131.25 65ZM1140 78.75C1141.62 78.75 1143.19 78.3858 1144.69 77.6575C1146.19 76.9292 1147.58 75.835 1148.87 74.375L1146.12 71.875C1145.21 72.875 1144.23 73.6358 1143.19 74.1575C1142.15 74.6792 1141.08 74.9383 1140 74.935C1138.92 74.935 1137.85 74.675 1136.81 74.155C1135.77 73.635 1134.79 72.875 1133.87 71.875L1131.12 74.375C1132.46 75.8333 1133.86 76.9275 1135.34 77.6575C1136.82 78.3875 1138.38 78.7517 1140 78.75ZM1148.75 65C1150.5 65 1151.96 64.3642 1153.12 63.0925C1154.29 61.8208 1155.1 60.3108 1155.56 58.5625L1151.94 57.6875C1151.73 58.6042 1151.36 59.4275 1150.84 60.1575C1150.32 60.8875 1149.63 61.2517 1148.75 61.25C1147.87 61.25 1147.18 60.8858 1146.66 60.1575C1146.14 59.4292 1145.77 58.6058 1145.56 57.6875L1141.94 58.5625C1142.4 60.3125 1143.21 61.8233 1144.37 63.095C1145.54 64.3667 1147 65.0017 1148.75 65ZM1140 90C1136.54 90 1133.29 89.3433 1130.25 88.03C1127.21 86.7167 1124.56 84.9358 1122.31 82.6875C1120.06 80.4375 1118.28 77.7917 1116.97 74.75C1115.66 71.7083 1115 68.4583 1115 65C1115 61.5417 1115.66 58.2917 1116.97 55.25C1118.28 52.2083 1120.06 49.5625 1122.31 47.3125C1124.56 45.0625 1127.21 43.2817 1130.25 41.97C1133.29 40.6583 1136.54 40.0017 1140 40C1143.46 40 1146.71 40.6567 1149.75 41.97C1152.79 43.2833 1155.44 45.0642 1157.69 47.3125C1159.94 49.5625 1161.72 52.2083 1163.03 55.25C1164.35 58.2917 1165 61.5417 1165 65C1165 68.4583 1164.34 71.7083 1163.03 74.75C1161.72 77.7917 1159.94 80.4375 1157.69 82.6875C1155.44 84.9375 1152.79 86.7192 1149.75 88.0325C1146.71 89.3458 1143.46 90.0017 1140 90ZM1140 85C1145.58 85 1150.31 83.0625 1154.19 79.1875C1158.06 75.3125 1160 70.5833 1160 65C1160 59.4167 1158.06 54.6875 1154.19 50.8125C1150.31 46.9375 1145.58 45 1140 45C1134.42 45 1129.69 46.9375 1125.81 50.8125C1121.94 54.6875 1120 59.4167 1120 65C1120 70.5833 1121.94 75.3125 1125.81 79.1875C1129.69 83.0625 1134.42 85 1140 85Z" fill="#158368"/>
<path d="M1177.38 60.5V46.22H1187.66V48.38H1179.88V52.12H1187.08V54.16H1179.88V58.34H1187.8V60.5H1177.38ZM1198.91 53.62H1196.63C1196.45 52.36 1195.53 51.68 1194.27 51.68C1193.09 51.68 1191.43 52.3 1191.43 55.44C1191.43 57.16 1192.19 58.98 1194.17 58.98C1195.49 58.98 1196.41 58.1 1196.63 56.62H1198.91C1198.49 59.3 1196.83 60.78 1194.17 60.78C1190.93 60.78 1189.15 58.48 1189.15 55.44C1189.15 52.32 1190.85 49.88 1194.25 49.88C1196.65 49.88 1198.69 51.08 1198.91 53.62ZM1200.77 60.5V46.22H1203.05V51.52H1203.09C1203.65 50.58 1204.83 49.88 1206.19 49.88C1208.43 49.88 1209.85 51.08 1209.85 53.4V60.5H1207.57V54C1207.53 52.38 1206.89 51.68 1205.55 51.68C1204.03 51.68 1203.05 52.88 1203.05 54.4V60.5H1200.77ZM1218.63 57.02V55.32C1217.93 55.78 1216.83 55.76 1215.83 55.94C1214.85 56.1 1213.97 56.46 1213.97 57.66C1213.97 58.68 1215.27 58.98 1216.07 58.98C1217.07 58.98 1218.63 58.46 1218.63 57.02ZM1220.91 52.88V58.2C1220.91 58.76 1221.03 58.98 1221.45 58.98C1221.59 58.98 1221.77 58.98 1222.01 58.94V60.52C1221.67 60.64 1220.95 60.78 1220.57 60.78C1219.65 60.78 1218.99 60.46 1218.81 59.52C1217.91 60.4 1216.45 60.78 1215.23 60.78C1213.37 60.78 1211.69 59.78 1211.69 57.76C1211.69 55.18 1213.75 54.76 1215.67 54.54C1217.31 54.24 1218.77 54.42 1218.77 53.08C1218.77 51.9 1217.55 51.68 1216.63 51.68C1215.35 51.68 1214.45 52.2 1214.35 53.32H1212.07C1212.23 50.66 1214.49 49.88 1216.77 49.88C1218.79 49.88 1220.91 50.7 1220.91 52.88ZM1223.37 60.5V50.16H1225.53V51.68L1225.57 51.72C1226.25 50.58 1227.43 49.88 1228.79 49.88C1231.03 49.88 1232.45 51.08 1232.45 53.4V60.5H1230.17V54C1230.13 52.38 1229.49 51.68 1228.15 51.68C1226.63 51.68 1225.65 52.88 1225.65 54.4V60.5H1223.37ZM1239.35 58.7C1241.37 58.7 1242.13 56.86 1242.13 55.1C1242.13 53.32 1241.33 51.68 1239.35 51.68C1237.33 51.68 1236.63 53.56 1236.63 55.28C1236.63 56.98 1237.45 58.7 1239.35 58.7ZM1244.41 50.16V59.96C1244.41 63.06 1242.59 64.6 1239.33 64.6C1237.25 64.6 1234.91 63.8 1234.71 61.38H1236.99C1237.27 62.68 1238.31 62.9 1239.47 62.9C1241.31 62.9 1242.13 61.96 1242.13 60.26V58.68H1242.09C1241.45 59.82 1240.27 60.5 1238.99 60.5C1235.71 60.5 1234.35 58.02 1234.35 55.06C1234.35 52.28 1236.09 49.88 1239.03 49.88C1240.33 49.88 1241.51 50.42 1242.09 51.58H1242.13V50.16H1244.41ZM1256.09 55.92H1248.49C1248.49 57.54 1249.37 58.98 1251.27 58.98C1252.59 58.98 1253.39 58.4 1253.79 57.26H1255.95C1255.45 59.52 1253.53 60.78 1251.27 60.78C1248.03 60.78 1246.21 58.52 1246.21 55.34C1246.21 52.4 1248.13 49.88 1251.21 49.88C1254.47 49.88 1256.47 52.82 1256.09 55.92ZM1248.49 54.42H1253.81C1253.73 52.98 1252.75 51.68 1251.21 51.68C1249.63 51.68 1248.55 52.88 1248.49 54.42ZM1269.77 57.02V55.32C1269.07 55.78 1267.97 55.76 1266.97 55.94C1265.99 56.1 1265.11 56.46 1265.11 57.66C1265.11 58.68 1266.41 58.98 1267.21 58.98C1268.21 58.98 1269.77 58.46 1269.77 57.02ZM1272.05 52.88V58.2C1272.05 58.76 1272.17 58.98 1272.59 58.98C1272.73 58.98 1272.91 58.98 1273.15 58.94V60.52C1272.81 60.64 1272.09 60.78 1271.71 60.78C1270.79 60.78 1270.13 60.46 1269.95 59.52C1269.05 60.4 1267.59 60.78 1266.37 60.78C1264.51 60.78 1262.83 59.78 1262.83 57.76C1262.83 55.18 1264.89 54.76 1266.81 54.54C1268.45 54.24 1269.91 54.42 1269.91 53.08C1269.91 51.9 1268.69 51.68 1267.77 51.68C1266.49 51.68 1265.59 52.2 1265.49 53.32H1263.21C1263.37 50.66 1265.63 49.88 1267.91 49.88C1269.93 49.88 1272.05 50.7 1272.05 52.88ZM1277.24 60.5L1273.48 50.16H1275.96L1278.58 58.1H1278.62L1281.14 50.16H1283.5L1279.8 60.5H1277.24ZM1294.25 55.92H1286.65C1286.65 57.54 1287.53 58.98 1289.43 58.98C1290.75 58.98 1291.55 58.4 1291.95 57.26H1294.11C1293.61 59.52 1291.69 60.78 1289.43 60.78C1286.19 60.78 1284.37 58.52 1284.37 55.34C1284.37 52.4 1286.29 49.88 1289.37 49.88C1292.63 49.88 1294.63 52.82 1294.25 55.92ZM1286.65 54.42H1291.97C1291.89 52.98 1290.91 51.68 1289.37 51.68C1287.79 51.68 1286.71 52.88 1286.65 54.42ZM1305.24 53.62H1302.96C1302.78 52.36 1301.86 51.68 1300.6 51.68C1299.42 51.68 1297.76 52.3 1297.76 55.44C1297.76 57.16 1298.52 58.98 1300.5 58.98C1301.82 58.98 1302.74 58.1 1302.96 56.62H1305.24C1304.82 59.3 1303.16 60.78 1300.5 60.78C1297.26 60.78 1295.48 58.48 1295.48 55.44C1295.48 52.32 1297.18 49.88 1300.58 49.88C1302.98 49.88 1305.02 51.08 1305.24 53.62ZM1177.06 83.5V73.16H1179.22V74.68L1179.26 74.72C1179.94 73.58 1181.12 72.88 1182.48 72.88C1184.72 72.88 1186.14 74.08 1186.14 76.4V83.5H1183.86V77C1183.82 75.38 1183.18 74.68 1181.84 74.68C1180.32 74.68 1179.34 75.88 1179.34 77.4V83.5H1177.06ZM1193.28 81.98C1195.32 81.98 1196.22 80.12 1196.22 78.32C1196.22 76.54 1195.32 74.68 1193.28 74.68C1191.24 74.68 1190.34 76.54 1190.34 78.32C1190.34 80.12 1191.24 81.98 1193.28 81.98ZM1193.28 83.78C1189.96 83.78 1188.06 81.5 1188.06 78.32C1188.06 75.16 1189.96 72.88 1193.28 72.88C1196.6 72.88 1198.5 75.16 1198.5 78.32C1198.5 81.5 1196.6 83.78 1193.28 83.78ZM1199.36 74.86V73.16H1201.08V70.06H1203.36V73.16H1205.42V74.86H1203.36V80.38C1203.36 81.32 1203.44 81.8 1204.46 81.8C1204.78 81.8 1205.1 81.8 1205.42 81.72V83.48C1204.92 83.52 1204.44 83.6 1203.94 83.6C1201.56 83.6 1201.12 82.68 1201.08 80.96V74.86H1199.36ZM1207.06 83.5V73.16H1209.2V75.16H1209.24C1209.5 74.06 1210.86 72.88 1212.26 72.88C1212.78 72.88 1212.92 72.92 1213.12 72.94V75.14C1212.8 75.1 1212.46 75.04 1212.14 75.04C1210.58 75.04 1209.34 76.3 1209.34 78.58V83.5H1207.06ZM1223.12 78.92H1215.52C1215.52 80.54 1216.4 81.98 1218.3 81.98C1219.62 81.98 1220.42 81.4 1220.82 80.26H1222.98C1222.48 82.52 1220.56 83.78 1218.3 83.78C1215.06 83.78 1213.24 81.52 1213.24 78.34C1213.24 75.4 1215.16 72.88 1218.24 72.88C1221.5 72.88 1223.5 75.82 1223.12 78.92ZM1215.52 77.42H1220.84C1220.76 75.98 1219.78 74.68 1218.24 74.68C1216.66 74.68 1215.58 75.88 1215.52 77.42ZM1239.8 78.92H1232.2C1232.2 80.54 1233.08 81.98 1234.98 81.98C1236.3 81.98 1237.1 81.4 1237.5 80.26H1239.66C1239.16 82.52 1237.24 83.78 1234.98 83.78C1231.74 83.78 1229.92 81.52 1229.92 78.34C1229.92 75.4 1231.84 72.88 1234.92 72.88C1238.18 72.88 1240.18 75.82 1239.8 78.92ZM1232.2 77.42H1237.52C1237.44 75.98 1236.46 74.68 1234.92 74.68C1233.34 74.68 1232.26 75.88 1232.2 77.42ZM1233.28 71.74L1235.08 68.88H1237.78L1234.94 71.74H1233.28ZM1243.31 78.34C1243.31 80.14 1244.09 81.98 1246.17 81.98C1248.15 81.98 1249.07 80.5 1249.07 78.34C1249.07 76.1 1248.07 74.68 1246.17 74.68C1244.29 74.68 1243.31 76.46 1243.31 78.34ZM1251.27 73.16V87.32H1248.99V82.16H1248.95C1248.23 83.3 1246.81 83.78 1245.49 83.78C1242.43 83.78 1241.03 81.16 1241.03 78.38C1241.03 75.36 1242.61 72.88 1245.87 72.88C1247.19 72.88 1248.43 73.38 1249.07 74.56H1249.11V73.16H1251.27ZM1262.84 73.16V83.5H1260.6V82.06H1260.56C1260 83.1 1258.76 83.78 1257.62 83.78C1254.92 83.78 1253.76 82.42 1253.76 79.72V73.16H1256.04V79.5C1256.04 81.32 1256.78 81.98 1258.02 81.98C1259.92 81.98 1260.56 80.76 1260.56 79.16V73.16H1262.84ZM1265.3 83.5V73.16H1267.58V83.5H1265.3ZM1265.3 71.38V69.22H1267.58V71.38H1265.3ZM1278.08 78.34C1278.08 76.46 1277.1 74.68 1275.22 74.68C1273.3 74.68 1272.32 76.14 1272.32 78.34C1272.32 80.42 1273.38 81.98 1275.22 81.98C1277.3 81.98 1278.08 80.14 1278.08 78.34ZM1270.12 87.32V73.16H1272.28V74.56H1272.32C1272.96 73.38 1274.2 72.88 1275.52 72.88C1278.78 72.88 1280.36 75.36 1280.36 78.38C1280.36 81.16 1278.96 83.78 1275.9 83.78C1274.58 83.78 1273.16 83.3 1272.44 82.16H1272.4V87.32H1270.12ZM1291.67 78.92H1284.07C1284.07 80.54 1284.95 81.98 1286.85 81.98C1288.17 81.98 1288.97 81.4 1289.37 80.26H1291.53C1291.03 82.52 1289.11 83.78 1286.85 83.78C1283.61 83.78 1281.79 81.52 1281.79 78.34C1281.79 75.4 1283.71 72.88 1286.79 72.88C1290.05 72.88 1292.05 75.82 1291.67 78.92ZM1284.07 77.42H1289.39C1289.31 75.98 1288.33 74.68 1286.79 74.68C1285.21 74.68 1284.13 75.88 1284.07 77.42Z" fill="#001524"/>
<path d="M-8.25 235.611V123.253C-8.25 123.253 82.4199 48.5755 252.238 88.9979C422.056 129.42 466.64 156.138 612.413 130.79C758.186 105.442 850.86 76.3244 1009.66 88.9979C1168.46 101.671 1273.65 130.79 1443.47 193.82V219.168C1443.47 219.168 1227.57 174.978 1031.7 166.073C835.832 157.167 790.246 192.793 632.952 225.677C475.657 258.561 451.612 242.805 274.279 193.82C96.9471 144.835 -8.25 235.611 -8.25 235.611Z" fill="#D9D9D9" fill-opacity="0.7"/>
<path d="M-6.24963 168.271C-6.24963 168.271 84.4203 93.7621 254.239 134.093C424.057 174.424 468.64 201.081 614.414 175.79C760.187 150.5 827.813 118.021 1011.66 134.093C1169.45 134.093 1439.46 205.175 1439.46 205.175" stroke="#001524" stroke-width="0.993098" stroke-dasharray="22.84 22.84"/>
<path d="M36.5317 33.7592C36.5317 32.6139 36.9866 31.5156 37.7964 30.7058C38.6063 29.896 39.7046 29.441 40.8499 29.441C41.9951 29.441 43.0935 29.896 43.9033 30.7058C44.7131 31.5156 45.168 32.6139 45.168 33.7592C45.168 34.9044 44.7131 36.0028 43.9033 36.8126C43.0935 37.6224 41.9951 38.0774 40.8499 38.0774C39.7046 38.0774 38.6063 37.6224 37.7964 36.8126C36.9866 36.0028 36.5317 34.9044 36.5317 33.7592ZM40.8499 32.0319C40.3918 32.0319 39.9524 32.2139 39.6285 32.5378C39.3046 32.8617 39.1226 33.3011 39.1226 33.7592C39.1226 34.2173 39.3046 34.6566 39.6285 34.9806C39.9524 35.3045 40.3918 35.4865 40.8499 35.4865C41.308 35.4865 41.7473 35.3045 42.0712 34.9806C42.3951 34.6566 42.5771 34.2173 42.5771 33.7592C42.5771 33.3011 42.3951 32.8617 42.0712 32.5378C41.7473 32.2139 41.308 32.0319 40.8499 32.0319ZM40.8499 41.5319C39.7046 41.5319 38.6063 41.9869 37.7964 42.7967C36.9866 43.6065 36.5317 44.7048 36.5317 45.8501C36.5317 46.9954 36.9866 48.0937 37.7964 48.9035C38.6063 49.7133 39.7046 50.1683 40.8499 50.1683C41.9951 50.1683 43.0935 49.7133 43.9033 48.9035C44.7131 48.0937 45.168 46.9954 45.168 45.8501C45.168 44.7048 44.7131 43.6065 43.9033 42.7967C43.0935 41.9869 41.9951 41.5319 40.8499 41.5319ZM39.1226 45.8501C39.1226 45.392 39.3046 44.9527 39.6285 44.6287C39.9524 44.3048 40.3918 44.1228 40.8499 44.1228C41.308 44.1228 41.7473 44.3048 42.0712 44.6287C42.3951 44.9527 42.5771 45.392 42.5771 45.8501C42.5771 46.3082 42.3951 46.7475 42.0712 47.0715C41.7473 47.3954 41.308 47.5774 40.8499 47.5774C40.3918 47.5774 39.9524 47.3954 39.6285 47.0715C39.3046 46.7475 39.1226 46.3082 39.1226 45.8501ZM48.6226 33.3274C48.6226 32.9838 48.7591 32.6543 49.002 32.4113C49.245 32.1684 49.5745 32.0319 49.918 32.0319H62.8726C63.2162 32.0319 63.5457 32.1684 63.7886 32.4113C64.0316 32.6543 64.168 32.9838 64.168 33.3274C64.168 33.6709 64.0316 34.0004 63.7886 34.2434C63.5457 34.4863 63.2162 34.6228 62.8726 34.6228H49.918C49.5745 34.6228 49.245 34.4863 49.002 34.2434C48.7591 34.0004 48.6226 33.6709 48.6226 33.3274ZM49.918 44.1228C49.5745 44.1228 49.245 44.2593 49.002 44.5023C48.7591 44.7452 48.6226 45.0747 48.6226 45.4183C48.6226 45.7619 48.7591 46.0914 49.002 46.3343C49.245 46.5773 49.5745 46.7137 49.918 46.7137H62.8726C63.2162 46.7137 63.5457 46.5773 63.7886 46.3343C64.0316 46.0914 64.168 45.7619 64.168 45.4183C64.168 45.0747 64.0316 44.7452 63.7886 44.5023C63.5457 44.2593 63.2162 44.1228 62.8726 44.1228H49.918ZM36.5317 24.691C36.5317 24.3474 36.6682 24.0179 36.9111 23.775C37.154 23.532 37.4836 23.3956 37.8271 23.3956H62.8726C63.2162 23.3956 63.5457 23.532 63.7886 23.775C64.0316 24.0179 64.168 24.3474 64.168 24.691C64.168 25.0346 64.0316 25.3641 63.7886 25.607C63.5457 25.85 63.2162 25.9865 62.8726 25.9865H37.8271C37.4836 25.9865 37.154 25.85 36.9111 25.607C36.6682 25.3641 36.5317 25.0346 36.5317 24.691ZM37.8271 17.3501C36.1092 17.3501 34.4617 18.0325 33.247 19.2472C32.0323 20.462 31.3499 22.1095 31.3499 23.8274V48.8728C31.3499 50.5907 32.0323 52.2382 33.247 53.453C34.4617 54.6677 36.1092 55.3501 37.8271 55.3501H62.8726C64.5905 55.3501 66.238 54.6677 67.4527 53.453C68.6674 52.2382 69.3499 50.5907 69.3499 48.8728V23.8274C69.3499 22.1095 68.6674 20.462 67.4527 19.2472C66.238 18.0325 64.5905 17.3501 62.8726 17.3501H37.8271ZM33.9408 23.8274C33.9408 22.7966 34.3502 21.8081 35.0791 21.0793C35.8079 20.3505 36.7964 19.941 37.8271 19.941H62.8726C63.9033 19.941 64.8918 20.3505 65.6207 21.0793C66.3495 21.8081 66.7589 22.7966 66.7589 23.8274V48.8728C66.7589 49.9036 66.3495 50.8921 65.6207 51.6209C64.8918 52.3497 63.9033 52.7592 62.8726 52.7592H37.8271C36.7964 52.7592 35.8079 52.3497 35.0791 51.6209C34.3502 50.8921 33.9408 49.9036 33.9408 48.8728V23.8274Z" fill="#FF7D00"/>
<path d="M90.528 19.26V23.98H94.188C95.308 23.98 96.688 23.42 96.688 21.62C96.688 19.74 95.548 19.26 94.228 19.26H90.528ZM88.028 31.5V17.22H94.328C98.408 17.22 99.188 19.86 99.188 21.64C99.188 23.4 98.408 26.04 94.328 26.02H90.528V31.5H88.028ZM101.048 31.5V21.16H103.188V23.16H103.228C103.488 22.06 104.848 20.88 106.248 20.88C106.768 20.88 106.908 20.92 107.108 20.94V23.14C106.788 23.1 106.448 23.04 106.128 23.04C104.568 23.04 103.328 24.3 103.328 26.58V31.5H101.048ZM117.459 26.92H109.859C109.859 28.54 110.739 29.98 112.639 29.98C113.959 29.98 114.759 29.4 115.159 28.26H117.319C116.819 30.52 114.899 31.78 112.639 31.78C109.399 31.78 107.579 29.52 107.579 26.34C107.579 23.4 109.499 20.88 112.579 20.88C115.839 20.88 117.839 23.82 117.459 26.92ZM109.859 25.42H115.179C115.099 23.98 114.119 22.68 112.579 22.68C110.999 22.68 109.919 23.88 109.859 25.42ZM110.939 19.74L112.739 16.88H115.439L112.599 19.74H110.939ZM118.632 28.18H120.912C121.032 29.5 122.032 29.98 123.252 29.98C124.112 29.98 125.612 29.8 125.552 28.62C125.492 27.42 123.832 27.28 122.172 26.9C120.492 26.54 118.852 25.94 118.852 23.84C118.852 21.58 121.292 20.88 123.172 20.88C125.292 20.88 127.212 21.76 127.492 24.06H125.112C124.912 22.98 124.012 22.68 123.012 22.68C122.352 22.68 121.132 22.84 121.132 23.74C121.132 24.86 122.812 25.02 124.492 25.4C126.152 25.78 127.832 26.38 127.832 28.42C127.832 30.88 125.352 31.78 123.212 31.78C120.612 31.78 118.672 30.62 118.632 28.18ZM138.943 26.92H131.343C131.343 28.54 132.223 29.98 134.123 29.98C135.443 29.98 136.243 29.4 136.643 28.26H138.803C138.303 30.52 136.383 31.78 134.123 31.78C130.883 31.78 129.063 29.52 129.063 26.34C129.063 23.4 130.983 20.88 134.063 20.88C137.323 20.88 139.323 23.82 138.943 26.92ZM131.343 25.42H136.663C136.583 23.98 135.603 22.68 134.063 22.68C132.483 22.68 131.403 23.88 131.343 25.42ZM140.677 31.5V21.16H142.837V22.68L142.877 22.72C143.557 21.58 144.737 20.88 146.097 20.88C148.337 20.88 149.757 22.08 149.757 24.4V31.5H147.477V25C147.437 23.38 146.797 22.68 145.457 22.68C143.937 22.68 142.957 23.88 142.957 25.4V31.5H140.677ZM151.121 22.86V21.16H152.841V18.06H155.121V21.16H157.181V22.86H155.121V28.38C155.121 29.32 155.201 29.8 156.221 29.8C156.541 29.8 156.861 29.8 157.181 29.72V31.48C156.681 31.52 156.201 31.6 155.701 31.6C153.321 31.6 152.881 30.68 152.841 28.96V22.86H151.121ZM165.201 28.02V26.32C164.501 26.78 163.401 26.76 162.401 26.94C161.421 27.1 160.541 27.46 160.541 28.66C160.541 29.68 161.841 29.98 162.641 29.98C163.641 29.98 165.201 29.46 165.201 28.02ZM167.481 23.88V29.2C167.481 29.76 167.601 29.98 168.021 29.98C168.161 29.98 168.341 29.98 168.581 29.94V31.52C168.241 31.64 167.521 31.78 167.141 31.78C166.221 31.78 165.561 31.46 165.381 30.52C164.481 31.4 163.021 31.78 161.801 31.78C159.941 31.78 158.261 30.78 158.261 28.76C158.261 26.18 160.321 25.76 162.241 25.54C163.881 25.24 165.341 25.42 165.341 24.08C165.341 22.9 164.121 22.68 163.201 22.68C161.921 22.68 161.021 23.2 160.921 24.32H158.641C158.801 21.66 161.061 20.88 163.341 20.88C165.361 20.88 167.481 21.7 167.481 23.88ZM168.895 22.86V21.16H170.615V18.06H172.895V21.16H174.955V22.86H172.895V28.38C172.895 29.32 172.975 29.8 173.995 29.8C174.315 29.8 174.635 29.8 174.955 29.72V31.48C174.455 31.52 173.975 31.6 173.475 31.6C171.095 31.6 170.655 30.68 170.615 28.96V22.86H168.895ZM176.655 31.5V21.16H178.935V31.5H176.655ZM176.655 19.38V17.22H178.935V19.38H176.655ZM186.159 29.98C188.199 29.98 189.099 28.12 189.099 26.32C189.099 24.54 188.199 22.68 186.159 22.68C184.119 22.68 183.219 24.54 183.219 26.32C183.219 28.12 184.119 29.98 186.159 29.98ZM186.159 31.78C182.839 31.78 180.939 29.5 180.939 26.32C180.939 23.16 182.839 20.88 186.159 20.88C189.479 20.88 191.379 23.16 191.379 26.32C191.379 29.5 189.479 31.78 186.159 31.78ZM193.274 31.5V21.16H195.434V22.68L195.474 22.72C196.154 21.58 197.334 20.88 198.694 20.88C200.934 20.88 202.354 22.08 202.354 24.4V31.5H200.074V25C200.034 23.38 199.394 22.68 198.054 22.68C196.534 22.68 195.554 23.88 195.554 25.4V31.5H193.274ZM212.105 26.44C212.105 28.22 212.985 29.98 214.965 29.98C217.005 29.98 217.865 28.12 217.865 26.32C217.865 24.04 216.765 22.68 215.005 22.68C212.865 22.68 212.105 24.58 212.105 26.44ZM220.065 17.22V31.5H217.905V30.1H217.865C217.265 31.28 215.965 31.78 214.665 31.78C211.405 31.78 209.825 29.36 209.825 26.26C209.825 22.52 212.045 20.88 214.305 20.88C215.605 20.88 217.045 21.36 217.745 22.5H217.785V17.22H220.065ZM231.932 26.92H224.332C224.332 28.54 225.212 29.98 227.112 29.98C228.432 29.98 229.232 29.4 229.632 28.26H231.792C231.292 30.52 229.372 31.78 227.112 31.78C223.872 31.78 222.052 29.52 222.052 26.34C222.052 23.4 223.972 20.88 227.052 20.88C230.312 20.88 232.312 23.82 231.932 26.92ZM224.332 25.42H229.652C229.572 23.98 228.592 22.68 227.052 22.68C225.472 22.68 224.392 23.88 224.332 25.42ZM90.448 54.5L86.688 44.16H89.168L91.788 52.1H91.828L94.348 44.16H96.708L93.008 54.5H90.448ZM102.819 52.98C104.859 52.98 105.759 51.12 105.759 49.32C105.759 47.54 104.859 45.68 102.819 45.68C100.779 45.68 99.8791 47.54 99.8791 49.32C99.8791 51.12 100.779 52.98 102.819 52.98ZM102.819 54.78C99.4991 54.78 97.5991 52.5 97.5991 49.32C97.5991 46.16 99.4991 43.88 102.819 43.88C106.139 43.88 108.039 46.16 108.039 49.32C108.039 52.5 106.139 54.78 102.819 54.78ZM108.895 45.86V44.16H110.615V41.06H112.895V44.16H114.955V45.86H112.895V51.38C112.895 52.32 112.975 52.8 113.995 52.8C114.315 52.8 114.635 52.8 114.955 52.72V54.48C114.455 54.52 113.975 54.6 113.475 54.6C111.095 54.6 110.655 53.68 110.615 51.96V45.86H108.895ZM116.595 54.5V44.16H118.735V46.16H118.775C119.035 45.06 120.395 43.88 121.795 43.88C122.315 43.88 122.455 43.92 122.655 43.94V46.14C122.335 46.1 121.995 46.04 121.675 46.04C120.115 46.04 118.875 47.3 118.875 49.58V54.5H116.595ZM132.654 49.92H125.054C125.054 51.54 125.934 52.98 127.834 52.98C129.154 52.98 129.954 52.4 130.354 51.26H132.514C132.014 53.52 130.094 54.78 127.834 54.78C124.594 54.78 122.774 52.52 122.774 49.34C122.774 46.4 124.694 43.88 127.774 43.88C131.034 43.88 133.034 46.82 132.654 49.92ZM125.054 48.42H130.374C130.294 46.98 129.314 45.68 127.774 45.68C126.194 45.68 125.114 46.88 125.054 48.42ZM140.014 54.5V40.22H142.294V54.5H140.014ZM149.518 52.98C151.558 52.98 152.458 51.12 152.458 49.32C152.458 47.54 151.558 45.68 149.518 45.68C147.478 45.68 146.578 47.54 146.578 49.32C146.578 51.12 147.478 52.98 149.518 52.98ZM149.518 54.78C146.198 54.78 144.298 52.5 144.298 49.32C144.298 46.16 146.198 43.88 149.518 43.88C152.838 43.88 154.738 46.16 154.738 49.32C154.738 52.5 152.838 54.78 149.518 54.78ZM161.134 52.7C163.154 52.7 163.914 50.86 163.914 49.1C163.914 47.32 163.114 45.68 161.134 45.68C159.114 45.68 158.414 47.56 158.414 49.28C158.414 50.98 159.234 52.7 161.134 52.7ZM166.194 44.16V53.96C166.194 57.06 164.374 58.6 161.114 58.6C159.034 58.6 156.694 57.8 156.494 55.38H158.774C159.054 56.68 160.094 56.9 161.254 56.9C163.094 56.9 163.914 55.96 163.914 54.26V52.68H163.874C163.234 53.82 162.054 54.5 160.774 54.5C157.494 54.5 156.134 52.02 156.134 49.06C156.134 46.28 157.874 43.88 160.814 43.88C162.114 43.88 163.294 44.42 163.874 45.58H163.914V44.16H166.194ZM177.869 49.92H170.269C170.269 51.54 171.149 52.98 173.049 52.98C174.369 52.98 175.169 52.4 175.569 51.26H177.729C177.229 53.52 175.309 54.78 173.049 54.78C169.809 54.78 167.989 52.52 167.989 49.34C167.989 46.4 169.909 43.88 172.989 43.88C176.249 43.88 178.249 46.82 177.869 49.92ZM170.269 48.42H175.589C175.509 46.98 174.529 45.68 172.989 45.68C171.409 45.68 170.329 46.88 170.269 48.42ZM179.603 54.5V44.16H181.763V45.6H181.823C182.503 44.58 183.363 43.88 185.003 43.88C186.263 43.88 187.443 44.42 187.903 45.6C188.663 44.54 189.643 43.88 191.143 43.88C193.323 43.88 194.603 44.84 194.603 47.36V54.5H192.323V48.46C192.323 46.82 192.223 45.68 190.443 45.68C188.903 45.68 188.243 46.7 188.243 48.44V54.5H185.963V47.86C185.963 46.44 185.523 45.68 184.143 45.68C182.963 45.68 181.883 46.64 181.883 48.36V54.5H179.603ZM206.385 49.92H198.785C198.785 51.54 199.665 52.98 201.565 52.98C202.885 52.98 203.685 52.4 204.085 51.26H206.245C205.745 53.52 203.825 54.78 201.565 54.78C198.325 54.78 196.505 52.52 196.505 49.34C196.505 46.4 198.425 43.88 201.505 43.88C204.765 43.88 206.765 46.82 206.385 49.92ZM198.785 48.42H204.105C204.025 46.98 203.045 45.68 201.505 45.68C199.925 45.68 198.845 46.88 198.785 48.42ZM208.118 54.5V44.16H210.278V45.68L210.318 45.72C210.998 44.58 212.178 43.88 213.538 43.88C215.778 43.88 217.198 45.08 217.198 47.4V54.5H214.918V48C214.878 46.38 214.238 45.68 212.898 45.68C211.378 45.68 210.398 46.88 210.398 48.4V54.5H208.118ZM218.563 45.86V44.16H220.283V41.06H222.563V44.16H224.623V45.86H222.563V51.38C222.563 52.32 222.643 52.8 223.663 52.8C223.983 52.8 224.303 52.8 224.623 52.72V54.48C224.123 54.52 223.643 54.6 223.143 54.6C220.763 54.6 220.323 53.68 220.283 51.96V45.86H218.563Z" fill="#001524"/>
<g clip-path="url(#clip0_672_1555)">
<path d="M298.681 244.152H285.379C285.15 244.152 284.963 244.339 284.963 244.568V247.062C284.963 247.291 285.15 247.478 285.379 247.478H298.681C298.91 247.478 299.097 247.291 299.097 247.062V244.568C299.097 244.339 298.91 244.152 298.681 244.152ZM291.718 251.219H285.379C285.15 251.219 284.963 251.406 284.963 251.635V254.129C284.963 254.358 285.15 254.545 285.379 254.545H291.718C291.947 254.545 292.134 254.358 292.134 254.129V251.635C292.134 251.406 291.947 251.219 291.718 251.219ZM274.378 239.501H272.128C271.806 239.501 271.546 239.761 271.546 240.083V252.97C271.546 253.157 271.634 253.329 271.785 253.438L279.522 259.081C279.782 259.268 280.146 259.216 280.333 258.957L281.668 257.133V257.127C281.855 256.868 281.798 256.504 281.538 256.317L274.955 251.557V240.083C274.96 239.761 274.695 239.501 274.378 239.501Z" fill="#15616D"/>
<path d="M291.396 257.761H288.392C288.101 257.761 287.826 257.912 287.67 258.161C287.01 259.206 286.241 260.172 285.357 261.056C283.835 262.578 282.063 263.773 280.093 264.605C278.051 265.467 275.884 265.904 273.65 265.904C271.41 265.904 269.243 265.467 267.206 264.605C265.237 263.773 263.465 262.578 261.943 261.056C260.42 259.533 259.225 257.761 258.393 255.792C257.531 253.755 257.094 251.588 257.094 249.348C257.094 247.108 257.531 244.947 258.393 242.904C259.225 240.935 260.42 239.163 261.943 237.641C263.465 236.118 265.237 234.923 267.206 234.091C269.243 233.229 271.416 232.792 273.65 232.792C275.89 232.792 278.057 233.229 280.093 234.091C282.063 234.923 283.835 236.118 285.357 237.641C286.241 238.524 287.01 239.49 287.67 240.535C287.826 240.784 288.101 240.935 288.392 240.935H291.396C291.754 240.935 291.983 240.561 291.822 240.244C288.434 233.504 281.564 229.124 273.894 229.035C262.665 228.895 253.337 238.087 253.317 249.306C253.296 260.546 262.405 269.666 273.645 269.666C281.413 269.666 288.397 265.27 291.822 258.452C291.983 258.135 291.749 257.761 291.396 257.761Z" fill="#15616D"/>
</g>
<path d="M310.551 244.5V230.22H320.831V232.38H313.051V236.12H320.251V238.16H313.051V242.34H320.971V244.5H310.551ZM322.268 241.18H324.548C324.668 242.5 325.668 242.98 326.888 242.98C327.748 242.98 329.248 242.8 329.188 241.62C329.128 240.42 327.468 240.28 325.808 239.9C324.128 239.54 322.488 238.94 322.488 236.84C322.488 234.58 324.928 233.88 326.808 233.88C328.928 233.88 330.848 234.76 331.128 237.06H328.748C328.548 235.98 327.648 235.68 326.648 235.68C325.988 235.68 324.768 235.84 324.768 236.74C324.768 237.86 326.448 238.02 328.128 238.4C329.788 238.78 331.468 239.38 331.468 241.42C331.468 243.88 328.988 244.78 326.848 244.78C324.248 244.78 322.308 243.62 322.268 241.18ZM332.159 235.86V234.16H333.879V231.06H336.159V234.16H338.219V235.86H336.159V241.38C336.159 242.32 336.239 242.8 337.259 242.8C337.579 242.8 337.899 242.8 338.219 242.72V244.48C337.719 244.52 337.239 244.6 336.739 244.6C334.359 244.6 333.919 243.68 333.879 241.96V235.86H332.159ZM339.919 244.5V234.16H342.199V244.5H339.919ZM339.919 232.38V230.22H342.199V232.38H339.919ZM344.684 244.5V234.16H346.844V235.6H346.904C347.584 234.58 348.444 233.88 350.084 233.88C351.344 233.88 352.524 234.42 352.984 235.6C353.744 234.54 354.724 233.88 356.224 233.88C358.404 233.88 359.684 234.84 359.684 237.36V244.5H357.404V238.46C357.404 236.82 357.304 235.68 355.524 235.68C353.984 235.68 353.324 236.7 353.324 238.44V244.5H351.044V237.86C351.044 236.44 350.604 235.68 349.224 235.68C348.044 235.68 346.964 236.64 346.964 238.36V244.5H344.684ZM368.466 241.02V239.32C367.766 239.78 366.666 239.76 365.666 239.94C364.686 240.1 363.806 240.46 363.806 241.66C363.806 242.68 365.106 242.98 365.906 242.98C366.906 242.98 368.466 242.46 368.466 241.02ZM370.746 236.88V242.2C370.746 242.76 370.866 242.98 371.286 242.98C371.426 242.98 371.606 242.98 371.846 242.94V244.52C371.506 244.64 370.786 244.78 370.406 244.78C369.486 244.78 368.826 244.46 368.646 243.52C367.746 244.4 366.286 244.78 365.066 244.78C363.206 244.78 361.526 243.78 361.526 241.76C361.526 239.18 363.586 238.76 365.506 238.54C367.146 238.24 368.606 238.42 368.606 237.08C368.606 235.9 367.386 235.68 366.466 235.68C365.186 235.68 364.286 236.2 364.186 237.32H361.906C362.066 234.66 364.326 233.88 366.606 233.88C368.626 233.88 370.746 234.7 370.746 236.88ZM372.159 235.86V234.16H373.879V231.06H376.159V234.16H378.219V235.86H376.159V241.38C376.159 242.32 376.239 242.8 377.259 242.8C377.579 242.8 377.899 242.8 378.219 242.72V244.48C377.719 244.52 377.239 244.6 376.739 244.6C374.359 244.6 373.919 243.68 373.879 241.96V235.86H372.159ZM379.919 244.5V234.16H382.199V244.5H379.919ZM379.919 232.38V230.22H382.199V232.38H379.919ZM389.424 242.98C391.464 242.98 392.364 241.12 392.364 239.32C392.364 237.54 391.464 235.68 389.424 235.68C387.384 235.68 386.484 237.54 386.484 239.32C386.484 241.12 387.384 242.98 389.424 242.98ZM389.424 244.78C386.104 244.78 384.204 242.5 384.204 239.32C384.204 236.16 386.104 233.88 389.424 233.88C392.744 233.88 394.644 236.16 394.644 239.32C394.644 242.5 392.744 244.78 389.424 244.78ZM396.539 244.5V234.16H398.699V235.68L398.739 235.72C399.419 234.58 400.599 233.88 401.959 233.88C404.199 233.88 405.619 235.08 405.619 237.4V244.5H403.339V238C403.299 236.38 402.659 235.68 401.319 235.68C399.799 235.68 398.819 236.88 398.819 238.4V244.5H396.539ZM310.291 267.5V257.16H312.571V267.5H310.291ZM310.291 255.38V253.22H312.571V255.38H310.291ZM315.055 267.5V257.16H317.215V258.68L317.255 258.72C317.935 257.58 319.115 256.88 320.475 256.88C322.715 256.88 324.135 258.08 324.135 260.4V267.5H321.855V261C321.815 259.38 321.175 258.68 319.835 258.68C318.315 258.68 317.335 259.88 317.335 261.4V267.5H315.055ZM325.979 264.18H328.259C328.379 265.5 329.379 265.98 330.599 265.98C331.459 265.98 332.959 265.8 332.899 264.62C332.839 263.42 331.179 263.28 329.519 262.9C327.839 262.54 326.199 261.94 326.199 259.84C326.199 257.58 328.639 256.88 330.519 256.88C332.639 256.88 334.559 257.76 334.839 260.06H332.459C332.259 258.98 331.359 258.68 330.359 258.68C329.699 258.68 328.479 258.84 328.479 259.74C328.479 260.86 330.159 261.02 331.839 261.4C333.499 261.78 335.179 262.38 335.179 264.42C335.179 266.88 332.699 267.78 330.559 267.78C327.959 267.78 326.019 266.62 325.979 264.18ZM335.87 258.86V257.16H337.59V254.06H339.87V257.16H341.93V258.86H339.87V264.38C339.87 265.32 339.95 265.8 340.97 265.8C341.29 265.8 341.61 265.8 341.93 265.72V267.48C341.43 267.52 340.95 267.6 340.45 267.6C338.07 267.6 337.63 266.68 337.59 264.96V258.86H335.87ZM349.95 264.02V262.32C349.25 262.78 348.15 262.76 347.15 262.94C346.17 263.1 345.29 263.46 345.29 264.66C345.29 265.68 346.59 265.98 347.39 265.98C348.39 265.98 349.95 265.46 349.95 264.02ZM352.23 259.88V265.2C352.23 265.76 352.35 265.98 352.77 265.98C352.91 265.98 353.09 265.98 353.33 265.94V267.52C352.99 267.64 352.27 267.78 351.89 267.78C350.97 267.78 350.31 267.46 350.13 266.52C349.23 267.4 347.77 267.78 346.55 267.78C344.69 267.78 343.01 266.78 343.01 264.76C343.01 262.18 345.07 261.76 346.99 261.54C348.63 261.24 350.09 261.42 350.09 260.08C350.09 258.9 348.87 258.68 347.95 258.68C346.67 258.68 345.77 259.2 345.67 260.32H343.39C343.55 257.66 345.81 256.88 348.09 256.88C350.11 256.88 352.23 257.7 352.23 259.88ZM354.684 267.5V257.16H356.844V258.68L356.884 258.72C357.564 257.58 358.744 256.88 360.104 256.88C362.344 256.88 363.764 258.08 363.764 260.4V267.5H361.484V261C361.444 259.38 360.804 258.68 359.464 258.68C357.944 258.68 356.964 259.88 356.964 261.4V267.5H354.684ZM365.128 258.86V257.16H366.848V254.06H369.128V257.16H371.188V258.86H369.128V264.38C369.128 265.32 369.208 265.8 370.228 265.8C370.548 265.8 370.868 265.8 371.188 265.72V267.48C370.688 267.52 370.208 267.6 369.708 267.6C367.328 267.6 366.888 266.68 366.848 264.96V258.86H365.128ZM379.208 264.02V262.32C378.508 262.78 377.408 262.76 376.408 262.94C375.428 263.1 374.548 263.46 374.548 264.66C374.548 265.68 375.848 265.98 376.648 265.98C377.648 265.98 379.208 265.46 379.208 264.02ZM381.488 259.88V265.2C381.488 265.76 381.608 265.98 382.028 265.98C382.168 265.98 382.348 265.98 382.588 265.94V267.52C382.248 267.64 381.528 267.78 381.148 267.78C380.228 267.78 379.568 267.46 379.388 266.52C378.488 267.4 377.028 267.78 375.808 267.78C373.948 267.78 372.268 266.78 372.268 264.76C372.268 262.18 374.328 261.76 376.248 261.54C377.888 261.24 379.348 261.42 379.348 260.08C379.348 258.9 378.128 258.68 377.208 258.68C375.928 258.68 375.028 259.2 374.928 260.32H372.648C372.808 257.66 375.068 256.88 377.348 256.88C379.368 256.88 381.488 257.7 381.488 259.88ZM383.941 267.5V257.16H386.101V258.68L386.141 258.72C386.821 257.58 388.001 256.88 389.361 256.88C391.601 256.88 393.021 258.08 393.021 260.4V267.5H390.741V261C390.701 259.38 390.061 258.68 388.721 258.68C387.201 258.68 386.221 259.88 386.221 261.4V267.5H383.941ZM404.806 262.92H397.206C397.206 264.54 398.086 265.98 399.986 265.98C401.306 265.98 402.106 265.4 402.506 264.26H404.666C404.166 266.52 402.246 267.78 399.986 267.78C396.746 267.78 394.926 265.52 394.926 262.34C394.926 259.4 396.846 256.88 399.926 256.88C403.186 256.88 405.186 259.82 404.806 262.92ZM397.206 261.42H402.526C402.446 259.98 401.466 258.68 399.926 258.68C398.346 258.68 397.266 259.88 397.206 261.42ZM398.286 255.74L400.086 252.88H402.786L399.946 255.74H398.286ZM415.919 262.92H408.319C408.319 264.54 409.199 265.98 411.099 265.98C412.419 265.98 413.219 265.4 413.619 264.26H415.779C415.279 266.52 413.359 267.78 411.099 267.78C407.859 267.78 406.039 265.52 406.039 262.34C406.039 259.4 407.959 256.88 411.039 256.88C414.299 256.88 416.299 259.82 415.919 262.92ZM408.319 261.42H413.639C413.559 259.98 412.579 258.68 411.039 258.68C409.459 258.68 408.379 259.88 408.319 261.42ZM419.432 262.44C419.432 264.22 420.312 265.98 422.292 265.98C424.332 265.98 425.192 264.12 425.192 262.32C425.192 260.04 424.092 258.68 422.332 258.68C420.192 258.68 419.432 260.58 419.432 262.44ZM427.392 253.22V267.5H425.232V266.1H425.192C424.592 267.28 423.292 267.78 421.992 267.78C418.732 267.78 417.152 265.36 417.152 262.26C417.152 258.52 419.372 256.88 421.632 256.88C422.932 256.88 424.372 257.36 425.072 258.5H425.112V253.22H427.392ZM439.259 262.92H431.659C431.659 264.54 432.539 265.98 434.439 265.98C435.759 265.98 436.559 265.4 436.959 264.26H439.119C438.619 266.52 436.699 267.78 434.439 267.78C431.199 267.78 429.379 265.52 429.379 262.34C429.379 259.4 431.299 256.88 434.379 256.88C437.639 256.88 439.639 259.82 439.259 262.92ZM431.659 261.42H436.979C436.899 259.98 435.919 258.68 434.379 258.68C432.799 258.68 431.719 259.88 431.659 261.42ZM440.432 264.18H442.712C442.832 265.5 443.832 265.98 445.052 265.98C445.912 265.98 447.412 265.8 447.352 264.62C447.292 263.42 445.632 263.28 443.972 262.9C442.292 262.54 440.652 261.94 440.652 259.84C440.652 257.58 443.092 256.88 444.972 256.88C447.092 256.88 449.012 257.76 449.292 260.06H446.912C446.712 258.98 445.812 258.68 444.812 258.68C444.152 258.68 442.932 258.84 442.932 259.74C442.932 260.86 444.612 261.02 446.292 261.4C447.952 261.78 449.632 262.38 449.632 264.42C449.632 266.88 447.152 267.78 445.012 267.78C442.412 267.78 440.472 266.62 440.432 264.18ZM456.93 267.5V257.16H459.07V259.16H459.11C459.37 258.06 460.73 256.88 462.13 256.88C462.65 256.88 462.79 256.92 462.99 256.94V259.14C462.67 259.1 462.33 259.04 462.01 259.04C460.45 259.04 459.21 260.3 459.21 262.58V267.5H456.93ZM472.989 262.92H465.389C465.389 264.54 466.269 265.98 468.169 265.98C469.489 265.98 470.289 265.4 470.689 264.26H472.849C472.349 266.52 470.429 267.78 468.169 267.78C464.929 267.78 463.109 265.52 463.109 262.34C463.109 259.4 465.029 256.88 468.109 256.88C471.369 256.88 473.369 259.82 472.989 262.92ZM465.389 261.42H470.709C470.629 259.98 469.649 258.68 468.109 258.68C466.529 258.68 465.449 259.88 465.389 261.42ZM477.463 267.5L473.703 257.16H476.183L478.803 265.1H478.843L481.363 257.16H483.723L480.023 267.5H477.463ZM494.474 262.92H486.874C486.874 264.54 487.754 265.98 489.654 265.98C490.974 265.98 491.774 265.4 492.174 264.26H494.334C493.834 266.52 491.914 267.78 489.654 267.78C486.414 267.78 484.594 265.52 484.594 262.34C484.594 259.4 486.514 256.88 489.594 256.88C492.854 256.88 494.854 259.82 494.474 262.92ZM486.874 261.42H492.194C492.114 259.98 491.134 258.68 489.594 258.68C488.014 258.68 486.934 259.88 486.874 261.42ZM496.207 267.5V257.16H498.367V258.68L498.407 258.72C499.087 257.58 500.267 256.88 501.627 256.88C503.867 256.88 505.287 258.08 505.287 260.4V267.5H503.007V261C502.967 259.38 502.327 258.68 500.987 258.68C499.467 258.68 498.487 259.88 498.487 261.4V267.5H496.207ZM516.771 257.16V267.5H514.531V266.06H514.491C513.931 267.1 512.691 267.78 511.551 267.78C508.851 267.78 507.691 266.42 507.691 263.72V257.16H509.971V263.5C509.971 265.32 510.711 265.98 511.951 265.98C513.851 265.98 514.491 264.76 514.491 263.16V257.16H516.771ZM518.616 264.18H520.896C521.016 265.5 522.016 265.98 523.236 265.98C524.096 265.98 525.596 265.8 525.536 264.62C525.476 263.42 523.816 263.28 522.156 262.9C520.476 262.54 518.836 261.94 518.836 259.84C518.836 257.58 521.276 256.88 523.156 256.88C525.276 256.88 527.196 257.76 527.476 260.06H525.096C524.896 258.98 523.996 258.68 522.996 258.68C522.336 258.68 521.116 258.84 521.116 259.74C521.116 260.86 522.796 261.02 524.476 261.4C526.136 261.78 527.816 262.38 527.816 264.42C527.816 266.88 525.336 267.78 523.196 267.78C520.596 267.78 518.656 266.62 518.616 264.18Z" fill="#001524"/>
<path d="M881.642 222.535C882.721 220.843 883.334 218.807 883.334 216.649C883.334 210.519 878.43 205.615 872.299 205.615C866.169 205.615 861.265 210.519 861.265 216.649C861.265 222.78 866.169 227.684 872.299 227.684C874.433 227.684 876.444 227.071 878.136 226.017L885.786 233.545L889.195 230.136L881.642 222.535ZM872.299 222.78C870.674 222.78 869.114 222.134 867.965 220.984C866.815 219.835 866.169 218.275 866.169 216.649C866.169 215.023 866.815 213.464 867.965 212.314C869.114 211.165 870.674 210.519 872.299 210.519C873.925 210.519 875.485 211.165 876.634 212.314C877.784 213.464 878.43 215.023 878.43 216.649C878.43 218.275 877.784 219.835 876.634 220.984C875.485 222.134 873.925 222.78 872.299 222.78ZM846.551 225.232V205.615H839.195L863.717 183.545L888.239 205.615H883.776C881.663 203.403 878.954 201.853 875.978 201.152L863.717 190.141L851.456 201.176V220.328H856.802C857.218 222.093 857.93 223.736 858.886 225.232H846.551Z" fill="#E4AA12"/>
<path d="M901.247 204.5V190.22H911.527V192.38H903.747V196.12H910.947V198.16H903.747V202.34H911.667V204.5H901.247ZM912.964 201.18H915.244C915.364 202.5 916.364 202.98 917.584 202.98C918.444 202.98 919.944 202.8 919.884 201.62C919.824 200.42 918.164 200.28 916.504 199.9C914.824 199.54 913.184 198.94 913.184 196.84C913.184 194.58 915.624 193.88 917.504 193.88C919.624 193.88 921.544 194.76 921.824 197.06H919.444C919.244 195.98 918.344 195.68 917.344 195.68C916.684 195.68 915.464 195.84 915.464 196.74C915.464 197.86 917.144 198.02 918.824 198.4C920.484 198.78 922.164 199.38 922.164 201.42C922.164 203.88 919.684 204.78 917.544 204.78C914.944 204.78 913.004 203.62 912.964 201.18ZM922.856 195.86V194.16H924.576V191.06H926.856V194.16H928.916V195.86H926.856V201.38C926.856 202.32 926.936 202.8 927.956 202.8C928.276 202.8 928.596 202.8 928.916 202.72V204.48C928.416 204.52 927.936 204.6 927.436 204.6C925.056 204.6 924.616 203.68 924.576 201.96V195.86H922.856ZM930.616 204.5V194.16H932.896V204.5H930.616ZM930.616 192.38V190.22H932.896V192.38H930.616ZM935.38 204.5V194.16H937.54V195.6H937.6C938.28 194.58 939.14 193.88 940.78 193.88C942.04 193.88 943.22 194.42 943.68 195.6C944.44 194.54 945.42 193.88 946.92 193.88C949.1 193.88 950.38 194.84 950.38 197.36V204.5H948.1V198.46C948.1 196.82 948 195.68 946.22 195.68C944.68 195.68 944.02 196.7 944.02 198.44V204.5H941.74V197.86C941.74 196.44 941.3 195.68 939.92 195.68C938.74 195.68 937.66 196.64 937.66 198.36V204.5H935.38ZM959.162 201.02V199.32C958.462 199.78 957.362 199.76 956.362 199.94C955.382 200.1 954.502 200.46 954.502 201.66C954.502 202.68 955.802 202.98 956.602 202.98C957.602 202.98 959.162 202.46 959.162 201.02ZM961.442 196.88V202.2C961.442 202.76 961.562 202.98 961.982 202.98C962.122 202.98 962.302 202.98 962.542 202.94V204.52C962.202 204.64 961.482 204.78 961.102 204.78C960.182 204.78 959.522 204.46 959.342 203.52C958.442 204.4 956.982 204.78 955.762 204.78C953.902 204.78 952.222 203.78 952.222 201.76C952.222 199.18 954.282 198.76 956.202 198.54C957.842 198.24 959.302 198.42 959.302 197.08C959.302 195.9 958.082 195.68 957.162 195.68C955.882 195.68 954.982 196.2 954.882 197.32H952.602C952.762 194.66 955.022 193.88 957.302 193.88C959.322 193.88 961.442 194.7 961.442 196.88ZM962.856 195.86V194.16H964.576V191.06H966.856V194.16H968.916V195.86H966.856V201.38C966.856 202.32 966.936 202.8 967.956 202.8C968.276 202.8 968.596 202.8 968.916 202.72V204.48C968.416 204.52 967.936 204.6 967.436 204.6C965.056 204.6 964.616 203.68 964.576 201.96V195.86H962.856ZM970.616 204.5V194.16H972.896V204.5H970.616ZM970.616 192.38V190.22H972.896V192.38H970.616ZM980.12 202.98C982.16 202.98 983.06 201.12 983.06 199.32C983.06 197.54 982.16 195.68 980.12 195.68C978.08 195.68 977.18 197.54 977.18 199.32C977.18 201.12 978.08 202.98 980.12 202.98ZM980.12 204.78C976.8 204.78 974.9 202.5 974.9 199.32C974.9 196.16 976.8 193.88 980.12 193.88C983.44 193.88 985.34 196.16 985.34 199.32C985.34 202.5 983.44 204.78 980.12 204.78ZM987.235 204.5V194.16H989.395V195.68L989.435 195.72C990.115 194.58 991.295 193.88 992.655 193.88C994.895 193.88 996.315 195.08 996.315 197.4V204.5H994.035V198C993.995 196.38 993.355 195.68 992.015 195.68C990.495 195.68 989.515 196.88 989.515 198.4V204.5H987.235ZM900.987 227.5V217.16H903.267V227.5H900.987ZM900.987 215.38V213.22H903.267V215.38H900.987ZM905.751 227.5V217.16H907.911V218.68L907.951 218.72C908.631 217.58 909.811 216.88 911.171 216.88C913.411 216.88 914.831 218.08 914.831 220.4V227.5H912.551V221C912.511 219.38 911.871 218.68 910.531 218.68C909.011 218.68 908.031 219.88 908.031 221.4V227.5H905.751ZM916.675 224.18H918.955C919.075 225.5 920.075 225.98 921.295 225.98C922.155 225.98 923.655 225.8 923.595 224.62C923.535 223.42 921.875 223.28 920.215 222.9C918.535 222.54 916.895 221.94 916.895 219.84C916.895 217.58 919.335 216.88 921.215 216.88C923.335 216.88 925.255 217.76 925.535 220.06H923.155C922.955 218.98 922.055 218.68 921.055 218.68C920.395 218.68 919.175 218.84 919.175 219.74C919.175 220.86 920.855 221.02 922.535 221.4C924.195 221.78 925.875 222.38 925.875 224.42C925.875 226.88 923.395 227.78 921.255 227.78C918.655 227.78 916.715 226.62 916.675 224.18ZM926.566 218.86V217.16H928.286V214.06H930.566V217.16H932.626V218.86H930.566V224.38C930.566 225.32 930.646 225.8 931.666 225.8C931.986 225.8 932.306 225.8 932.626 225.72V227.48C932.126 227.52 931.646 227.6 931.146 227.6C928.766 227.6 928.326 226.68 928.286 224.96V218.86H926.566ZM940.647 224.02V222.32C939.947 222.78 938.847 222.76 937.847 222.94C936.867 223.1 935.987 223.46 935.987 224.66C935.987 225.68 937.287 225.98 938.087 225.98C939.087 225.98 940.647 225.46 940.647 224.02ZM942.927 219.88V225.2C942.927 225.76 943.047 225.98 943.467 225.98C943.607 225.98 943.787 225.98 944.027 225.94V227.52C943.687 227.64 942.967 227.78 942.587 227.78C941.667 227.78 941.007 227.46 940.827 226.52C939.927 227.4 938.467 227.78 937.247 227.78C935.387 227.78 933.707 226.78 933.707 224.76C933.707 222.18 935.767 221.76 937.687 221.54C939.327 221.24 940.787 221.42 940.787 220.08C940.787 218.9 939.567 218.68 938.647 218.68C937.367 218.68 936.467 219.2 936.367 220.32H934.087C934.247 217.66 936.507 216.88 938.787 216.88C940.807 216.88 942.927 217.7 942.927 219.88ZM945.38 227.5V217.16H947.54V218.68L947.58 218.72C948.26 217.58 949.44 216.88 950.8 216.88C953.04 216.88 954.46 218.08 954.46 220.4V227.5H952.18V221C952.14 219.38 951.5 218.68 950.16 218.68C948.64 218.68 947.66 219.88 947.66 221.4V227.5H945.38ZM955.824 218.86V217.16H957.544V214.06H959.824V217.16H961.884V218.86H959.824V224.38C959.824 225.32 959.904 225.8 960.924 225.8C961.244 225.8 961.564 225.8 961.884 225.72V227.48C961.384 227.52 960.904 227.6 960.404 227.6C958.024 227.6 957.584 226.68 957.544 224.96V218.86H955.824ZM969.904 224.02V222.32C969.204 222.78 968.104 222.76 967.104 222.94C966.124 223.1 965.244 223.46 965.244 224.66C965.244 225.68 966.544 225.98 967.344 225.98C968.344 225.98 969.904 225.46 969.904 224.02ZM972.184 219.88V225.2C972.184 225.76 972.304 225.98 972.724 225.98C972.864 225.98 973.044 225.98 973.284 225.94V227.52C972.944 227.64 972.224 227.78 971.844 227.78C970.924 227.78 970.264 227.46 970.084 226.52C969.184 227.4 967.724 227.78 966.504 227.78C964.644 227.78 962.964 226.78 962.964 224.76C962.964 222.18 965.024 221.76 966.944 221.54C968.584 221.24 970.044 221.42 970.044 220.08C970.044 218.9 968.824 218.68 967.904 218.68C966.624 218.68 965.724 219.2 965.624 220.32H963.344C963.504 217.66 965.764 216.88 968.044 216.88C970.064 216.88 972.184 217.7 972.184 219.88ZM974.638 227.5V217.16H976.798V218.68L976.838 218.72C977.518 217.58 978.698 216.88 980.058 216.88C982.298 216.88 983.718 218.08 983.718 220.4V227.5H981.438V221C981.398 219.38 980.758 218.68 979.418 218.68C977.898 218.68 976.918 219.88 976.918 221.4V227.5H974.638ZM995.502 222.92H987.902C987.902 224.54 988.782 225.98 990.682 225.98C992.002 225.98 992.802 225.4 993.202 224.26H995.362C994.862 226.52 992.942 227.78 990.682 227.78C987.442 227.78 985.622 225.52 985.622 222.34C985.622 219.4 987.542 216.88 990.622 216.88C993.882 216.88 995.882 219.82 995.502 222.92ZM987.902 221.42H993.222C993.142 219.98 992.162 218.68 990.622 218.68C989.042 218.68 987.962 219.88 987.902 221.42ZM988.982 215.74L990.782 212.88H993.482L990.642 215.74H988.982ZM1006.62 222.92H999.015C999.015 224.54 999.895 225.98 1001.8 225.98C1003.12 225.98 1003.92 225.4 1004.32 224.26H1006.48C1005.98 226.52 1004.06 227.78 1001.8 227.78C998.555 227.78 996.735 225.52 996.735 222.34C996.735 219.4 998.655 216.88 1001.74 216.88C1005 216.88 1007 219.82 1006.62 222.92ZM999.015 221.42H1004.34C1004.26 219.98 1003.28 218.68 1001.74 218.68C1000.16 218.68 999.075 219.88 999.015 221.42ZM1010.13 222.44C1010.13 224.22 1011.01 225.98 1012.99 225.98C1015.03 225.98 1015.89 224.12 1015.89 222.32C1015.89 220.04 1014.79 218.68 1013.03 218.68C1010.89 218.68 1010.13 220.58 1010.13 222.44ZM1018.09 213.22V227.5H1015.93V226.1H1015.89C1015.29 227.28 1013.99 227.78 1012.69 227.78C1009.43 227.78 1007.85 225.36 1007.85 222.26C1007.85 218.52 1010.07 216.88 1012.33 216.88C1013.63 216.88 1015.07 217.36 1015.77 218.5H1015.81V213.22H1018.09ZM1029.96 222.92H1022.36C1022.36 224.54 1023.24 225.98 1025.14 225.98C1026.46 225.98 1027.26 225.4 1027.66 224.26H1029.82C1029.32 226.52 1027.4 227.78 1025.14 227.78C1021.9 227.78 1020.08 225.52 1020.08 222.34C1020.08 219.4 1022 216.88 1025.08 216.88C1028.34 216.88 1030.34 219.82 1029.96 222.92ZM1022.36 221.42H1027.68C1027.6 219.98 1026.62 218.68 1025.08 218.68C1023.5 218.68 1022.42 219.88 1022.36 221.42ZM1031.13 224.18H1033.41C1033.53 225.5 1034.53 225.98 1035.75 225.98C1036.61 225.98 1038.11 225.8 1038.05 224.62C1037.99 223.42 1036.33 223.28 1034.67 222.9C1032.99 222.54 1031.35 221.94 1031.35 219.84C1031.35 217.58 1033.79 216.88 1035.67 216.88C1037.79 216.88 1039.71 217.76 1039.99 220.06H1037.61C1037.41 218.98 1036.51 218.68 1035.51 218.68C1034.85 218.68 1033.63 218.84 1033.63 219.74C1033.63 220.86 1035.31 221.02 1036.99 221.4C1038.65 221.78 1040.33 222.38 1040.33 224.42C1040.33 226.88 1037.85 227.78 1035.71 227.78C1033.11 227.78 1031.17 226.62 1031.13 224.18ZM1047.63 227.5V217.16H1049.77V219.16H1049.81C1050.07 218.06 1051.43 216.88 1052.83 216.88C1053.35 216.88 1053.49 216.92 1053.69 216.94V219.14C1053.37 219.1 1053.03 219.04 1052.71 219.04C1051.15 219.04 1049.91 220.3 1049.91 222.58V227.5H1047.63ZM1063.69 222.92H1056.09C1056.09 224.54 1056.97 225.98 1058.87 225.98C1060.19 225.98 1060.99 225.4 1061.39 224.26H1063.55C1063.05 226.52 1061.13 227.78 1058.87 227.78C1055.63 227.78 1053.81 225.52 1053.81 222.34C1053.81 219.4 1055.73 216.88 1058.81 216.88C1062.07 216.88 1064.07 219.82 1063.69 222.92ZM1056.09 221.42H1061.41C1061.33 219.98 1060.35 218.68 1058.81 218.68C1057.23 218.68 1056.15 219.88 1056.09 221.42ZM1068.16 227.5L1064.4 217.16H1066.88L1069.5 225.1H1069.54L1072.06 217.16H1074.42L1070.72 227.5H1068.16ZM1085.17 222.92H1077.57C1077.57 224.54 1078.45 225.98 1080.35 225.98C1081.67 225.98 1082.47 225.4 1082.87 224.26H1085.03C1084.53 226.52 1082.61 227.78 1080.35 227.78C1077.11 227.78 1075.29 225.52 1075.29 222.34C1075.29 219.4 1077.21 216.88 1080.29 216.88C1083.55 216.88 1085.55 219.82 1085.17 222.92ZM1077.57 221.42H1082.89C1082.81 219.98 1081.83 218.68 1080.29 218.68C1078.71 218.68 1077.63 219.88 1077.57 221.42ZM1086.9 227.5V217.16H1089.06V218.68L1089.1 218.72C1089.78 217.58 1090.96 216.88 1092.32 216.88C1094.56 216.88 1095.98 218.08 1095.98 220.4V227.5H1093.7V221C1093.66 219.38 1093.02 218.68 1091.68 218.68C1090.16 218.68 1089.18 219.88 1089.18 221.4V227.5H1086.9ZM1107.47 217.16V227.5H1105.23V226.06H1105.19C1104.63 227.1 1103.39 227.78 1102.25 227.78C1099.55 227.78 1098.39 226.42 1098.39 223.72V217.16H1100.67V223.5C1100.67 225.32 1101.41 225.98 1102.65 225.98C1104.55 225.98 1105.19 224.76 1105.19 223.16V217.16H1107.47ZM1109.31 224.18H1111.59C1111.71 225.5 1112.71 225.98 1113.93 225.98C1114.79 225.98 1116.29 225.8 1116.23 224.62C1116.17 223.42 1114.51 223.28 1112.85 222.9C1111.17 222.54 1109.53 221.94 1109.53 219.84C1109.53 217.58 1111.97 216.88 1113.85 216.88C1115.97 216.88 1117.89 217.76 1118.17 220.06H1115.79C1115.59 218.98 1114.69 218.68 1113.69 218.68C1113.03 218.68 1111.81 218.84 1111.81 219.74C1111.81 220.86 1113.49 221.02 1115.17 221.4C1116.83 221.78 1118.51 222.38 1118.51 224.42C1118.51 226.88 1116.03 227.78 1113.89 227.78C1111.29 227.78 1109.35 226.62 1109.31 224.18Z" fill="#001524"/>
<defs>
<clipPath id="clip0_672_1555">
<rect width="72" height="72" fill="white" transform="matrix(-1 0 0 -1 309.031 285)"/>
</clipPath>
</defs>
</svg>
