<svg width="78" height="76" viewBox="0 0 78 76" fill="none" xmlns="http://www.w3.org/2000/svg">
<g filter="url(#filter0_d_989_2101)">
<path d="M2.70996 2H55.3572C65.8135 2 74.29 10.4765 74.29 20.9328V71.1704H21.6427C11.1864 71.1704 2.70996 62.6939 2.70996 52.2376V2Z" fill="#F5F3EE"/>
<path d="M3.01116 2.3012H55.3572C65.6471 2.3012 73.9888 10.6428 73.9888 20.9328V70.8692H21.6427C11.3528 70.8692 3.01116 62.5275 3.01116 52.2376V2.3012Z" stroke="#F5F3EE" stroke-width="0.602406"/>
<path d="M38.4997 21.8794C46.6216 21.8794 53.2055 28.4633 53.2055 36.5852C53.2055 44.7071 46.6216 51.291 38.4997 51.291C30.3779 51.291 23.7939 44.7071 23.7939 36.5852C23.7939 28.4633 30.3779 21.8794 38.4997 21.8794ZM38.4997 24.3304C31.7314 24.3304 26.2449 29.8169 26.2449 36.5852C26.2449 43.3535 31.7314 48.84 38.4997 48.84C45.2681 48.84 50.7546 43.3535 50.7546 36.5852C50.7546 29.8169 45.2681 24.3304 38.4997 24.3304ZM40.501 29.7574C41.1639 29.7574 42.0114 29.8555 42.4109 29.9817V31.8334C41.9918 31.7353 41.1927 31.6575 40.5206 31.6575C38.3184 31.6575 36.5739 32.7494 35.9403 34.864H41.2025V35.9651H35.7161C35.6873 36.2378 35.667 36.5209 35.667 36.8131C35.667 36.959 35.6726 37.1005 35.6793 37.2378L35.7063 37.6409H41.2025V38.7427H35.9305C36.5641 40.867 38.2988 41.9681 40.5108 41.9681C40.6186 41.9681 40.7295 41.9669 40.841 41.9638L41.1756 41.9516C41.6756 41.9271 42.1511 41.8768 42.4207 41.8027V43.6636C42.0016 43.7806 41.1927 43.8584 40.5108 43.8584C37.1388 43.8584 34.4201 42.1048 33.6793 38.742H31.672V37.6409H33.5139C33.4845 37.3781 33.4747 37.0956 33.4747 36.8131C33.4747 36.5209 33.4845 36.2378 33.5139 35.9651H31.672V34.864H33.6793C34.4207 31.5019 37.1487 29.7574 40.501 29.7574Z" fill="#15616D"/>
</g>
<defs>
<filter id="filter0_d_989_2101" x="0.300338" y="0.192783" width="77.6041" height="75.1945" filterUnits="userSpaceOnUse" color-interpolation-filters="sRGB">
<feFlood flood-opacity="0" result="BackgroundImageFix"/>
<feColorMatrix in="SourceAlpha" type="matrix" values="0 0 0 0 0 0 0 0 0 0 0 0 0 0 0 0 0 0 127 0" result="hardAlpha"/>
<feOffset dx="0.602406" dy="1.20481"/>
<feGaussianBlur stdDeviation="1.50601"/>
<feComposite in2="hardAlpha" operator="out"/>
<feColorMatrix type="matrix" values="0 0 0 0 0.513726 0 0 0 0 0.415686 0 0 0 0 0.176471 0 0 0 0.37 0"/>
<feBlend mode="normal" in2="BackgroundImageFix" result="effect1_dropShadow_989_2101"/>
<feBlend mode="normal" in="SourceGraphic" in2="effect1_dropShadow_989_2101" result="shape"/>
</filter>
</defs>
</svg>
