<svg width="79" height="77" viewBox="0 0 79 77" fill="none" xmlns="http://www.w3.org/2000/svg">
<g filter="url(#filter0_d_989_2107)">
<path d="M2.70996 2.17041H53.9138C65.1672 2.17041 74.29 11.2932 74.29 22.5466V72.1404H23.0862C11.8327 72.1404 2.70996 63.0177 2.70996 51.7642V2.17041Z" fill="#F5F3EE"/>
<path d="M3.03413 2.49458H53.9138C64.9882 2.49458 73.9658 11.4722 73.9658 22.5466V71.8163H23.0862C12.0117 71.8163 3.03413 62.8387 3.03413 51.7642V2.49458Z" stroke="#F5F3EE" stroke-width="0.648334"/>
<path d="M38.5003 25.9972L37.8349 26.7202C38.0162 26.8868 38.2534 26.9793 38.4996 26.9793C38.7458 26.9793 38.9831 26.8868 39.1644 26.7202L38.5003 25.9972ZM36.656 32.6642C35.7523 32.0053 34.7869 31.2037 34.0586 30.3589C33.3068 29.4879 32.9335 28.7164 32.9335 28.1047H30.9688C30.9688 29.4368 31.7258 30.6641 32.5707 31.6425C33.4391 32.6485 34.5367 33.5509 35.4981 34.2517L36.656 32.6642ZM32.9335 28.1047C32.9335 26.7176 33.6146 25.9264 34.4346 25.6514C35.2886 25.3632 36.5617 25.5492 37.8349 26.7202L39.1644 25.2741C37.4917 23.7364 35.4929 23.223 33.8085 23.7888C32.0887 24.3677 30.9688 25.9841 30.9688 28.1047H32.9335ZM41.5024 34.2517C42.4638 33.5523 43.5615 32.6485 44.4299 31.6425C45.2747 30.6641 46.0318 29.4368 46.0318 28.1047H44.0671C44.0671 28.7164 43.6951 29.4879 42.9419 30.3589C42.2137 31.2037 41.2496 32.0053 40.3458 32.6642L41.5024 34.2517ZM46.0318 28.1047C46.0318 25.9841 44.9119 24.3677 43.1934 23.7888C41.509 23.223 39.5089 23.7364 37.8362 25.2741L39.1657 26.7202C40.4388 25.5492 41.7133 25.3632 42.5673 25.6514C43.386 25.9264 44.0671 26.7176 44.0671 28.1047H46.0318ZM35.4981 34.2517C36.4871 34.9721 37.2717 35.5851 38.5003 35.5851V33.6204C38.0222 33.6204 37.7602 33.4697 36.656 32.6642L35.4981 34.2517ZM40.3445 32.6642C39.2403 33.4697 38.9784 33.6204 38.5003 33.6204V35.5851C39.7289 35.5851 40.5135 34.9734 41.5024 34.2517L40.3445 32.6642Z" fill="#15616D"/>
<path d="M29.3315 48.6339H32.2918C33.6147 48.6339 34.9546 48.7728 36.2422 49.0374C38.541 49.5096 40.9062 49.562 43.2236 49.1919C44.3605 49.0085 45.4765 48.7269 46.4877 48.2397C47.3994 47.7983 48.5166 47.1787 49.2672 46.4832C50.0164 45.789 50.7971 44.6534 51.3498 43.7653C51.8266 43.003 51.5961 42.0691 50.8442 41.5019C50.4217 41.1946 49.9127 41.0291 49.3903 41.0291C48.8679 41.0291 48.3589 41.1946 47.9364 41.5019L45.5695 43.2898C44.6526 43.984 43.6506 44.6219 42.4574 44.8119C42.3133 44.8341 42.1626 44.8551 42.0055 44.8734M42.0055 44.8734C41.9575 44.879 41.9094 44.8842 41.8614 44.8891M42.0055 44.8734C42.2151 44.8167 42.4073 44.7087 42.5648 44.5591C42.7621 44.3883 42.9233 44.1797 43.0388 43.9457C43.1542 43.7116 43.2217 43.4568 43.237 43.1963C43.2524 42.9358 43.2155 42.6748 43.1283 42.4288C43.0412 42.1828 42.9057 41.9567 42.7298 41.7639C42.5591 41.5744 42.3603 41.4123 42.1404 41.2832C38.4768 39.0971 32.7751 40.7619 29.3315 43.2047M42.0055 44.8734C41.9581 44.8837 41.9098 44.889 41.8614 44.8891M41.8614 44.8891C41.0714 44.9685 40.2756 44.9703 39.4854 44.8944" stroke="#15616D" stroke-width="1.96474" stroke-linecap="round"/>
<path d="M29.3313 42.2315C29.3313 41.1464 28.4517 40.2667 27.3666 40.2667C26.2815 40.2667 25.4019 41.1464 25.4019 42.2315V48.7806C25.4019 49.8657 26.2815 50.7453 27.3666 50.7453C28.4517 50.7453 29.3313 49.8657 29.3313 48.7806V42.2315Z" stroke="#15616D" stroke-width="1.96474"/>
</g>
<defs>
<filter id="filter0_d_989_2107" x="0.116625" y="0.225408" width="78.0634" height="76.4534" filterUnits="userSpaceOnUse" color-interpolation-filters="sRGB">
<feFlood flood-opacity="0" result="BackgroundImageFix"/>
<feColorMatrix in="SourceAlpha" type="matrix" values="0 0 0 0 0 0 0 0 0 0 0 0 0 0 0 0 0 0 127 0" result="hardAlpha"/>
<feOffset dx="0.648334" dy="1.29667"/>
<feGaussianBlur stdDeviation="1.62084"/>
<feComposite in2="hardAlpha" operator="out"/>
<feColorMatrix type="matrix" values="0 0 0 0 0.513726 0 0 0 0 0.415686 0 0 0 0 0.176471 0 0 0 0.37 0"/>
<feBlend mode="normal" in2="BackgroundImageFix" result="effect1_dropShadow_989_2107"/>
<feBlend mode="normal" in="SourceGraphic" in2="effect1_dropShadow_989_2107" result="shape"/>
</filter>
</defs>
</svg>
