<svg width="80" height="79" viewBox="0 0 80 79" fill="none" xmlns="http://www.w3.org/2000/svg">
<g filter="url(#filter0_d_1060_2480)">
<path d="M3.1908 2H56.8764C67.3327 2 75.8092 10.4765 75.8092 20.9328V73.896H22.1236C11.6673 73.896 3.1908 65.4196 3.1908 54.9633V2Z" fill="#F5F3EE"/>
<path d="M3.492 2.3012H56.8764C67.1664 2.3012 75.508 10.6428 75.508 20.9328V73.5948H22.1236C11.8336 73.5948 3.492 65.2532 3.492 54.9633V2.3012Z" stroke="#F5F3EE" stroke-width="0.602406"/>
<path d="M54.725 52.325C54.725 52.7736 54.5468 53.2039 54.2295 53.5212C53.9123 53.8384 53.482 54.0167 53.0334 54.0167H25.9667C25.518 54.0167 25.0878 53.8384 24.7705 53.5212C24.4533 53.2039 24.275 52.7736 24.275 52.325V34.2478C24.2749 33.9923 24.3327 33.7401 24.444 33.5101C24.5554 33.2801 24.7174 33.0783 24.9179 32.9199L38.4512 22.2438C38.7498 22.0078 39.1194 21.8794 39.5 21.8794C39.8807 21.8794 40.2502 22.0078 40.5489 22.2438L54.0822 32.9182C54.2829 33.0768 54.445 33.2789 54.5564 33.5092C54.6677 33.7395 54.7254 33.992 54.725 34.2478V52.325ZM31.0417 38.7917C31.0417 41.0349 31.9328 43.1864 33.5191 44.7726C35.1053 46.3588 37.2567 47.25 39.5 47.25C41.7433 47.25 43.8947 46.3588 45.481 44.7726C47.0672 43.1864 47.9584 41.0349 47.9584 38.7917H44.575C44.575 40.1376 44.0403 41.4285 43.0886 42.3802C42.1368 43.332 40.846 43.8667 39.5 43.8667C38.1541 43.8667 36.8632 43.332 35.9115 42.3802C34.9597 41.4285 34.425 40.1376 34.425 38.7917H31.0417Z" fill="#15616D"/>
</g>
<defs>
<filter id="filter0_d_1060_2480" x="0.781173" y="0.192783" width="78.6425" height="77.9201" filterUnits="userSpaceOnUse" color-interpolation-filters="sRGB">
<feFlood flood-opacity="0" result="BackgroundImageFix"/>
<feColorMatrix in="SourceAlpha" type="matrix" values="0 0 0 0 0 0 0 0 0 0 0 0 0 0 0 0 0 0 127 0" result="hardAlpha"/>
<feOffset dx="0.602406" dy="1.20481"/>
<feGaussianBlur stdDeviation="1.50601"/>
<feComposite in2="hardAlpha" operator="out"/>
<feColorMatrix type="matrix" values="0 0 0 0 0.513726 0 0 0 0 0.415686 0 0 0 0 0.176471 0 0 0 0.37 0"/>
<feBlend mode="normal" in2="BackgroundImageFix" result="effect1_dropShadow_1060_2480"/>
<feBlend mode="normal" in="SourceGraphic" in2="effect1_dropShadow_1060_2480" result="shape"/>
</filter>
</defs>
</svg>
