<svg width="80" height="77" viewBox="0 0 80 77" fill="none" xmlns="http://www.w3.org/2000/svg">
<g filter="url(#filter0_d_1060_2483)">
<path d="M3.1908 1.896H56.8764C67.3327 1.896 75.8092 10.3725 75.8092 20.8287V72.1294H22.1236C11.6673 72.1294 3.1908 63.653 3.1908 53.1967V1.896Z" fill="#F5F3EE"/>
<path d="M3.492 2.1972H56.8764C67.1664 2.1972 75.508 10.5388 75.508 20.8287V71.8282H22.1236C11.8336 71.8282 3.492 63.4866 3.492 53.1967V2.1972Z" stroke="#F5F3EE" stroke-width="0.602406"/>
<path d="M24.275 52.2501C24.275 49.1711 25.4982 46.2182 27.6753 44.041C29.8525 41.8638 32.8054 40.6407 35.8844 40.6407C38.9634 40.6407 41.9163 41.8638 44.0935 44.041C46.2707 46.2182 47.4938 49.1711 47.4938 52.2501H24.275ZM35.8844 39.1895C31.0738 39.1895 27.1774 35.2931 27.1774 30.4824C27.1774 25.6718 31.0738 21.7754 35.8844 21.7754C40.6951 21.7754 44.5915 25.6718 44.5915 30.4824C44.5915 35.2931 40.6951 39.1895 35.8844 39.1895ZM46.5694 42.43C48.7892 43.0005 50.7724 44.2568 52.2367 46.0199C53.701 47.7831 54.5718 49.9633 54.725 52.2501H50.3962C50.3962 48.4625 48.945 45.0145 46.5694 42.43ZM43.6337 39.1271C44.8498 38.0394 45.8223 36.707 46.4875 35.2173C47.1527 33.7275 47.4957 32.114 47.4938 30.4824C47.4969 28.4994 46.9897 26.5488 46.0209 24.8185C47.6645 25.1488 49.1431 26.038 50.2053 27.3351C51.2674 28.6322 51.8477 30.2571 51.8473 31.9336C51.8477 32.9675 51.6271 33.9896 51.2003 34.9313C50.7734 35.873 50.1502 36.7125 49.3725 37.3937C48.5947 38.0749 47.6802 38.582 46.6905 38.8809C45.7007 39.1799 44.6585 39.2638 43.6337 39.1271Z" fill="#15616D"/>
</g>
<defs>
<filter id="filter0_d_1060_2483" x="0.781173" y="0.0887791" width="78.6425" height="76.2575" filterUnits="userSpaceOnUse" color-interpolation-filters="sRGB">
<feFlood flood-opacity="0" result="BackgroundImageFix"/>
<feColorMatrix in="SourceAlpha" type="matrix" values="0 0 0 0 0 0 0 0 0 0 0 0 0 0 0 0 0 0 127 0" result="hardAlpha"/>
<feOffset dx="0.602406" dy="1.20481"/>
<feGaussianBlur stdDeviation="1.50601"/>
<feComposite in2="hardAlpha" operator="out"/>
<feColorMatrix type="matrix" values="0 0 0 0 0.513726 0 0 0 0 0.415686 0 0 0 0 0.176471 0 0 0 0.37 0"/>
<feBlend mode="normal" in2="BackgroundImageFix" result="effect1_dropShadow_1060_2483"/>
<feBlend mode="normal" in="SourceGraphic" in2="effect1_dropShadow_1060_2483" result="shape"/>
</filter>
</defs>
</svg>
