<svg width="79" height="79" viewBox="0 0 79 79" fill="none" xmlns="http://www.w3.org/2000/svg">
<g filter="url(#filter0_d_1060_2489)">
<path d="M2.6908 2H56.3764C66.8327 2 75.3092 10.4765 75.3092 20.9328V73.9004H21.6236C11.1673 73.9004 2.6908 65.424 2.6908 54.9677V2Z" fill="#F5F3EE"/>
<path d="M2.992 2.3012H56.3764C66.6664 2.3012 75.008 10.6428 75.008 20.9328V73.5992H21.6236C11.3336 73.5992 2.992 65.2576 2.992 54.9677V2.3012Z" stroke="#F5F3EE" stroke-width="0.602406"/>
<path d="M23.775 38.7961H30.5417V54.0211H23.775V38.7961ZM47.4584 32.0294H54.225V54.0211H47.4584V32.0294ZM35.6167 21.8794H42.3834V54.0211H35.6167V21.8794Z" fill="#15616D"/>
</g>
<defs>
<filter id="filter0_d_1060_2489" x="0.281173" y="0.192783" width="78.6425" height="77.9244" filterUnits="userSpaceOnUse" color-interpolation-filters="sRGB">
<feFlood flood-opacity="0" result="BackgroundImageFix"/>
<feColorMatrix in="SourceAlpha" type="matrix" values="0 0 0 0 0 0 0 0 0 0 0 0 0 0 0 0 0 0 127 0" result="hardAlpha"/>
<feOffset dx="0.602406" dy="1.20481"/>
<feGaussianBlur stdDeviation="1.50601"/>
<feComposite in2="hardAlpha" operator="out"/>
<feColorMatrix type="matrix" values="0 0 0 0 0.513726 0 0 0 0 0.415686 0 0 0 0 0.176471 0 0 0 0.37 0"/>
<feBlend mode="normal" in2="BackgroundImageFix" result="effect1_dropShadow_1060_2489"/>
<feBlend mode="normal" in="SourceGraphic" in2="effect1_dropShadow_1060_2489" result="shape"/>
</filter>
</defs>
</svg>
